<?xml version="1.0" standalone="no"?>
<!DOCTYPE svg PUBLIC "-//W3C//DTD SVG 20010904//EN"
 "http://www.w3.org/TR/2001/REC-SVG-20010904/DTD/svg10.dtd">
<svg version="1.0" xmlns="http://www.w3.org/2000/svg"
 width="1280.000000pt" height="959.000000pt" viewBox="0 0 1280.000000 959.000000"
 preserveAspectRatio="xMidYMid meet">
<g transform="translate(0.000000,959.000000) scale(0.100000,-0.100000)"
fill="#000000" stroke="none">
<path d="M10260 9534 c-11 -12 -10 -18 3 -32 16 -15 18 -15 34 0 13 14 14 20
3 32 -7 9 -16 16 -20 16 -4 0 -13 -7 -20 -16z"/>
<path d="M234 9515 c-8 -19 12 -36 33 -28 19 7 12 37 -10 41 -9 2 -20 -4 -23
-13z"/>
<path d="M4850 9465 c0 -8 9 -15 20 -15 11 0 20 7 20 15 0 8 -9 15 -20 15 -11
0 -20 -7 -20 -15z"/>
<path d="M12397 9457 c-3 -8 -2 -20 3 -27 11 -18 42 -4 38 17 -4 22 -34 29
-41 10z"/>
<path d="M3640 9445 c0 -8 7 -15 15 -15 8 0 15 7 15 15 0 8 -7 15 -15 15 -8 0
-15 -7 -15 -15z"/>
<path d="M11890 9435 c-10 -11 -10 -19 -2 -27 15 -15 44 -2 40 19 -4 23 -22
27 -38 8z"/>
<path d="M4582 9423 c4 -21 33 -25 33 -3 0 8 -8 16 -18 18 -14 3 -18 -1 -15
-15z"/>
<path d="M10604 9395 c-8 -21 2 -45 19 -45 8 0 20 7 27 15 10 12 10 18 0 30
-7 8 -19 15 -27 15 -7 0 -16 -7 -19 -15z"/>
<path d="M7967 9376 c-7 -18 1 -26 25 -26 13 0 18 6 16 17 -4 22 -34 29 -41 9z"/>
<path d="M9494 9375 c-4 -9 -2 -21 4 -27 16 -16 47 -5 47 17 0 26 -42 34 -51
10z"/>
<path d="M7165 9371 c-8 -15 3 -31 21 -31 9 0 14 7 12 17 -4 20 -24 28 -33 14z"/>
<path d="M10033 9344 c-8 -21 13 -42 28 -27 13 13 5 43 -11 43 -6 0 -13 -7
-17 -16z"/>
<path d="M11834 9345 c-7 -18 3 -35 21 -35 15 0 24 19 18 38 -6 17 -32 15 -39
-3z"/>
<path d="M3638 9343 c7 -3 16 -2 19 1 4 3 -2 6 -13 5 -11 0 -14 -3 -6 -6z"/>
<path d="M6017 9334 c-9 -10 2 -24 19 -24 8 0 14 7 14 15 0 15 -21 21 -33 9z"/>
<path d="M552 9313 c2 -10 10 -18 18 -18 8 0 16 8 18 18 2 12 -3 17 -18 17
-15 0 -20 -5 -18 -17z"/>
<path d="M3087 9324 c-13 -13 -7 -24 14 -24 11 0 19 5 17 12 -5 14 -22 21 -31
12z"/>
<path d="M2146 9311 c-10 -16 5 -41 24 -41 10 0 20 6 23 14 10 25 -33 50 -47
27z"/>
<path d="M8430 9310 c0 -5 5 -10 10 -10 6 0 10 5 10 10 0 6 -4 10 -10 10 -5 0
-10 -4 -10 -10z"/>
<path d="M30 9300 c0 -5 5 -10 10 -10 6 0 10 5 10 10 0 6 -4 10 -10 10 -5 0
-10 -4 -10 -10z"/>
<path d="M1355 9260 c-8 -14 3 -30 21 -30 8 0 14 9 14 20 0 21 -24 28 -35 10z"/>
<path d="M1601 9216 c-12 -14 -5 -26 16 -26 15 0 18 26 4 34 -5 3 -14 0 -20
-8z"/>
<path d="M10744 9215 c-8 -20 4 -35 27 -35 14 0 19 7 19 25 0 18 -5 25 -20 25
-11 0 -23 -7 -26 -15z"/>
<path d="M6020 9205 c0 -8 7 -15 15 -15 8 0 15 7 15 15 0 8 -7 15 -15 15 -8 0
-15 -7 -15 -15z"/>
<path d="M4113 9185 c-3 -9 -3 -18 -1 -21 9 -9 38 8 38 22 0 19 -29 18 -37 -1z"/>
<path d="M5083 9189 c-15 -15 -5 -39 17 -39 22 0 32 24 17 39 -6 6 -14 11 -17
11 -3 0 -11 -5 -17 -11z"/>
<path d="M2682 9023 c4 -21 33 -25 33 -3 0 8 -8 16 -18 18 -14 3 -18 -1 -15
-15z"/>
<path d="M7785 9020 c-8 -14 3 -30 21 -30 8 0 14 9 14 20 0 21 -24 28 -35 10z"/>
<path d="M5706 9003 c-12 -12 -6 -33 9 -33 8 0 15 6 15 14 0 17 -14 28 -24 19z"/>
<path d="M7295 8991 c-8 -15 3 -31 21 -31 9 0 14 7 12 17 -4 20 -24 28 -33 14z"/>
<path d="M6210 8945 c0 -10 7 -15 18 -13 21 4 19 22 -2 26 -10 2 -16 -3 -16
-13z"/>
<path d="M5775 8910 c-8 -14 3 -30 21 -30 8 0 14 9 14 20 0 21 -24 28 -35 10z"/>
<path d="M10366 8759 c-8 -181 -12 -210 -30 -203 -8 3 -16 -2 -19 -10 -11 -28
-31 -17 -99 56 -37 40 -69 70 -72 67 -3 -3 22 -38 54 -78 61 -74 73 -101 44
-101 -14 0 -14 -3 -4 -15 23 -28 -5 -38 -132 -47 -179 -12 -181 -15 -13 -17
158 -1 188 -8 166 -35 -12 -14 -10 -16 8 -16 28 0 27 -9 -9 -56 -41 -55 -37
-65 9 -20 24 23 46 36 57 34 18 -3 19 -16 19 -175 0 -94 3 -175 8 -179 4 -4 7
19 8 52 2 121 15 313 22 320 4 4 16 -1 27 -11 11 -10 20 -15 20 -10 0 4 18 -9
41 -30 22 -20 43 -34 46 -31 3 2 -13 27 -36 54 -23 26 -41 54 -41 60 0 7 10
22 22 34 24 24 98 36 243 37 39 1 77 6 85 11 10 7 -35 8 -142 4 -116 -5 -158
-4 -158 5 0 6 -9 11 -20 11 -11 0 -20 4 -20 8 0 9 32 54 78 111 50 61 23 49
-32 -14 -49 -57 -72 -67 -83 -37 -4 9 -13 22 -22 28 -12 9 -13 36 -8 165 4 85
3 160 -2 168 -5 8 -11 -49 -15 -140z"/>
<path d="M8844 8859 c-10 -17 23 -46 37 -32 7 7 9 19 6 27 -7 18 -33 21 -43 5z"/>
<path d="M4473 8844 c-8 -21 13 -42 28 -27 13 13 5 43 -11 43 -6 0 -13 -7 -17
-16z"/>
<path d="M8303 8844 c-9 -23 13 -40 32 -24 12 10 13 16 4 26 -15 18 -28 18
-36 -2z"/>
<path d="M12511 8846 c-8 -10 -8 -16 3 -25 10 -9 16 -8 26 3 12 15 6 36 -9 36
-5 0 -14 -6 -20 -14z"/>
<path d="M3380 8835 c0 -8 5 -15 10 -15 6 0 10 7 10 15 0 8 -4 15 -10 15 -5 0
-10 -7 -10 -15z"/>
<path d="M314 8826 c-8 -21 3 -36 27 -36 15 0 20 6 17 22 -4 27 -35 37 -44 14z"/>
<path d="M4905 8780 c-8 -13 3 -30 20 -30 14 0 27 24 18 34 -10 9 -31 7 -38
-4z"/>
<path d="M8074 8735 c-4 -9 -2 -21 4 -27 15 -15 44 -1 40 19 -4 23 -36 29 -44
8z"/>
<path d="M3022 8673 c5 -25 28 -28 28 -4 0 12 -6 21 -16 21 -9 0 -14 -7 -12
-17z"/>
<path d="M6733 8670 c-29 -12 -30 -49 -3 -77 24 -26 51 -21 67 14 11 24 10 30
-9 50 -24 25 -24 25 -55 13z"/>
<path d="M7046 8551 c-7 -11 18 -33 27 -24 4 3 7 12 7 20 0 15 -26 18 -34 4z"/>
<path d="M1187 8537 c-31 -24 -20 -77 17 -77 24 0 48 32 41 52 -10 25 -41 38
-58 25z"/>
<path d="M6180 8510 c0 -11 7 -20 15 -20 8 0 15 9 15 20 0 11 -7 20 -15 20 -8
0 -15 -9 -15 -20z"/>
<path d="M7780 8515 c0 -21 30 -31 40 -14 11 17 3 29 -21 29 -10 0 -19 -7 -19
-15z"/>
<path d="M3240 8510 c0 -5 5 -10 10 -10 6 0 10 5 10 10 0 6 -4 10 -10 10 -5 0
-10 -4 -10 -10z"/>
<path d="M8037 8484 c-8 -8 1 -24 14 -24 5 0 9 7 9 15 0 15 -12 20 -23 9z"/>
<path d="M304 8369 c-10 -17 13 -36 27 -22 12 12 4 33 -11 33 -5 0 -12 -5 -16
-11z"/>
<path d="M12057 8353 c-14 -13 -7 -33 11 -33 26 0 34 11 21 27 -13 14 -22 16
-32 6z"/>
<path d="M8143 8304 c-8 -21 13 -42 28 -27 13 13 5 43 -11 43 -6 0 -13 -7 -17
-16z"/>
<path d="M4415 8241 c-9 -16 3 -31 26 -31 14 0 19 6 17 17 -4 20 -33 29 -43
14z"/>
<path d="M2070 8175 c0 -8 9 -15 20 -15 11 0 20 7 20 15 0 8 -9 15 -20 15 -11
0 -20 -7 -20 -15z"/>
<path d="M12335 8110 c-8 -14 3 -30 21 -30 8 0 14 9 14 20 0 21 -24 28 -35 10z"/>
<path d="M5296 8091 c-10 -16 5 -42 23 -39 21 4 21 42 -1 46 -9 2 -19 -1 -22
-7z"/>
<path d="M11700 7961 c0 -27 19 -36 37 -18 18 18 9 37 -18 37 -12 0 -19 -7
-19 -19z"/>
<path d="M897 7963 c-4 -3 -7 -12 -7 -20 0 -15 26 -18 34 -4 7 11 -18 33 -27
24z"/>
<path d="M12645 7880 c-9 -15 4 -30 26 -30 12 0 19 7 19 20 0 21 -33 29 -45
10z"/>
<path d="M3644 7829 c-3 -6 0 -17 8 -25 13 -13 16 -13 27 0 7 8 10 20 6 26 -8
13 -32 13 -41 -1z"/>
<path d="M5972 7753 c4 -21 33 -25 33 -3 0 8 -8 16 -18 18 -14 3 -18 -1 -15
-15z"/>
<path d="M2620 7696 c-13 -17 -6 -36 15 -36 19 0 26 27 11 39 -10 8 -17 7 -26
-3z"/>
<path d="M6051 7696 c-12 -14 -5 -26 16 -26 15 0 18 26 4 34 -5 3 -14 0 -20
-8z"/>
<path d="M580 7580 c0 -13 7 -20 18 -20 24 0 32 8 25 26 -8 22 -43 17 -43 -6z"/>
<path d="M4416 7554 c-3 -26 -6 -86 -7 -133 -1 -124 -10 -176 -32 -175 -9 1
-17 -4 -17 -12 0 -28 -26 -13 -94 54 -76 74 -77 67 -4 -21 45 -55 60 -87 39
-87 -5 0 -7 -9 -4 -20 3 -11 4 -20 2 -21 -2 -1 -51 -7 -109 -14 l-105 -12 97
-2 c110 -1 128 -6 128 -32 0 -11 7 -19 16 -19 14 0 13 -5 -6 -37 l-21 -36 25
16 c14 10 35 17 47 17 l22 0 -6 -177 c-4 -107 -3 -170 3 -158 5 11 9 70 10
130 1 111 11 210 22 221 8 7 54 -22 96 -60 44 -41 40 -26 -8 35 -45 58 -48 69
-20 76 11 3 20 11 20 18 0 17 55 25 168 25 50 0 92 4 92 9 0 6 -44 7 -109 4
-81 -4 -116 -2 -140 8 -36 16 -38 25 -14 59 l17 25 -27 -18 c-29 -18 -47 -16
-47 8 0 7 -7 16 -16 19 -15 6 -16 25 -9 181 7 173 4 219 -9 129z"/>
<path d="M9030 7545 c0 -8 9 -15 20 -15 11 0 20 7 20 15 0 8 -9 15 -20 15 -11
0 -20 -7 -20 -15z"/>
<path d="M1684 7499 c-10 -17 13 -36 27 -22 12 12 4 33 -11 33 -5 0 -12 -5
-16 -11z"/>
<path d="M12485 7500 c-8 -13 3 -30 20 -30 14 0 27 24 18 34 -10 9 -31 7 -38
-4z"/>
<path d="M8387 7473 c-11 -10 -8 -41 4 -49 6 -3 18 1 27 9 13 13 13 19 2 31
-14 17 -23 20 -33 9z"/>
<path d="M6771 7450 c-16 -9 -6 -30 15 -30 15 0 20 25 6 34 -4 2 -14 1 -21 -4z"/>
<path d="M3184 7369 c-3 -6 -1 -16 5 -22 9 -9 14 -8 21 3 9 15 4 30 -10 30 -5
0 -12 -5 -16 -11z"/>
<path d="M11845 7350 c-8 -14 3 -30 21 -30 8 0 14 9 14 20 0 21 -24 28 -35 10z"/>
<path d="M11130 7330 c0 -5 5 -10 10 -10 6 0 10 5 10 10 0 6 -4 10 -10 10 -5
0 -10 -4 -10 -10z"/>
<path d="M10442 7308 c2 -15 10 -23 23 -23 30 0 27 39 -3 43 -20 3 -23 0 -20
-20z"/>
<path d="M5552 7274 c4 -21 22 -23 26 -1 2 10 -3 17 -13 17 -10 0 -15 -6 -13
-16z"/>
<path d="M4539 7263 c-13 -16 -12 -17 4 -4 16 13 21 21 13 21 -2 0 -10 -8 -17
-17z"/>
<path d="M1185 7100 c-9 -15 4 -50 19 -50 20 0 37 25 30 44 -7 18 -39 22 -49
6z"/>
<path d="M12271 6996 c-8 -9 -19 -16 -26 -16 -19 0 -25 -51 -9 -67 8 -8 14
-18 14 -23 0 -13 32 -22 43 -11 5 5 16 7 25 4 10 -4 13 -2 10 8 -3 8 2 22 10
32 15 16 13 21 -19 53 -31 31 -37 33 -48 20z"/>
<path d="M2526 6953 c-12 -12 -6 -33 9 -33 8 0 15 6 15 14 0 17 -14 28 -24 19z"/>
<path d="M7556 6953 c-12 -12 -6 -33 9 -33 8 0 15 6 15 14 0 17 -14 28 -24 19z"/>
<path d="M280 6914 c0 -9 7 -14 17 -12 25 5 28 28 4 28 -12 0 -21 -6 -21 -16z"/>
<path d="M9762 6903 c-20 -8 -3 -23 28 -23 33 0 48 15 24 24 -18 7 -33 7 -52
-1z"/>
<path d="M6150 6850 c0 -5 5 -10 10 -10 6 0 10 5 10 10 0 6 -4 10 -10 10 -5 0
-10 -4 -10 -10z"/>
<path d="M3323 6804 c-7 -19 2 -28 22 -21 19 8 19 23 0 31 -9 3 -18 -1 -22
-10z"/>
<path d="M10573 6794 c-3 -8 -1 -20 6 -27 14 -14 47 15 37 32 -10 16 -36 13
-43 -5z"/>
<path d="M8492 6743 c2 -10 10 -18 18 -18 22 0 18 29 -3 33 -14 3 -18 -1 -15
-15z"/>
<path d="M1993 6605 c-3 -9 -3 -18 0 -22 10 -10 37 6 37 22 0 20 -29 20 -37 0z"/>
<path d="M7404 6589 c-10 -17 13 -36 27 -22 12 12 4 33 -11 33 -5 0 -12 -5
-16 -11z"/>
<path d="M12644 6569 c-8 -14 21 -43 35 -35 19 12 13 46 -8 46 -11 0 -23 -5
-27 -11z"/>
<path d="M9360 6535 c0 -10 11 -15 35 -15 24 0 35 5 35 15 0 10 -11 15 -35 15
-24 0 -35 -5 -35 -15z"/>
<path d="M870 6515 c0 -8 7 -15 15 -15 8 0 15 7 15 15 0 8 -7 15 -15 15 -8 0
-15 -7 -15 -15z"/>
<path d="M3210 6515 c0 -8 9 -15 20 -15 11 0 20 7 20 15 0 8 -9 15 -20 15 -11
0 -20 -7 -20 -15z"/>
<path d="M10740 6494 c0 -8 5 -12 10 -9 6 3 10 10 10 16 0 5 -4 9 -10 9 -5 0
-10 -7 -10 -16z"/>
<path d="M5760 6489 c0 -5 5 -7 10 -4 6 3 10 8 10 11 0 2 -4 4 -10 4 -5 0 -10
-5 -10 -11z"/>
<path d="M9056 6491 c-7 -11 18 -33 27 -24 4 3 7 12 7 20 0 15 -26 18 -34 4z"/>
<path d="M6472 6474 c-25 -17 -28 -41 -7 -68 17 -23 54 -16 73 15 12 19 11 24
-9 45 -27 28 -28 29 -57 8z"/>
<path d="M11424 6455 c-9 -23 3 -45 24 -45 25 0 44 23 36 44 -8 20 -53 21 -60
1z"/>
<path d="M7124 6319 c-10 -17 13 -36 27 -22 12 12 4 33 -11 33 -5 0 -12 -5
-16 -11z"/>
<path d="M5400 6275 c0 -8 7 -15 15 -15 8 0 15 7 15 15 0 8 -7 15 -15 15 -8 0
-15 -7 -15 -15z"/>
<path d="M12290 6200 c0 -15 5 -20 18 -18 9 2 17 10 17 18 0 8 -8 16 -17 18
-13 2 -18 -3 -18 -18z"/>
<path d="M9943 6196 c-13 -6 -23 -18 -23 -26 0 -9 -5 -21 -12 -28 -9 -9 -9
-12 0 -12 7 0 12 -11 12 -25 0 -14 7 -28 15 -31 21 -9 75 18 75 37 0 9 7 20
17 23 14 6 11 12 -17 41 -37 38 -35 37 -67 21z"/>
<path d="M1761 6136 c-9 -10 -8 -16 3 -25 10 -9 16 -8 25 3 9 10 8 16 -3 25
-10 9 -16 8 -25 -3z"/>
<path d="M2030 6025 c0 -10 7 -15 18 -13 21 4 19 22 -2 26 -10 2 -16 -3 -16
-13z"/>
<path d="M2907 6033 c-4 -3 -7 -12 -7 -20 0 -15 26 -18 34 -4 7 11 -18 33 -27
24z"/>
<path d="M706 5953 c-14 -15 -5 -43 14 -43 13 0 20 7 20 19 0 19 -23 35 -34
24z"/>
<path d="M3394 5919 c-9 -15 11 -33 30 -26 9 4 13 13 10 22 -7 17 -30 20 -40
4z"/>
<path d="M4853 5908 c2 -7 12 -13 22 -13 10 0 20 6 23 13 2 7 -6 12 -23 12
-17 0 -25 -5 -22 -12z"/>
<path d="M252 5733 c4 -21 33 -25 33 -3 0 8 -8 16 -18 18 -14 3 -18 -1 -15
-15z"/>
<path d="M9540 5740 c0 -5 5 -10 11 -10 5 0 7 5 4 10 -3 6 -8 10 -11 10 -2 0
-4 -4 -4 -10z"/>
<path d="M8970 5700 c0 -5 14 -10 30 -10 17 0 30 5 30 10 0 6 -13 10 -30 10
-16 0 -30 -4 -30 -10z"/>
<path d="M8246 5683 c-14 -15 -5 -43 14 -43 13 0 20 7 20 19 0 19 -23 35 -34
24z"/>
<path d="M11170 5674 c-11 -12 -10 -18 3 -32 16 -15 18 -15 34 0 13 14 14 20
3 32 -7 9 -16 16 -20 16 -4 0 -13 -7 -20 -16z"/>
<path d="M5360 5660 c0 -5 14 -10 30 -10 17 0 30 5 30 10 0 6 -13 10 -30 10
-16 0 -30 -4 -30 -10z"/>
<path d="M12380 5596 c0 -21 21 -31 30 -15 5 7 6 17 4 21 -9 14 -34 9 -34 -6z"/>
<path d="M4130 5580 c0 -5 5 -10 10 -10 6 0 10 5 10 10 0 6 -4 10 -10 10 -5 0
-10 -4 -10 -10z"/>
<path d="M565 5540 c-3 -5 1 -10 9 -10 9 0 16 5 16 10 0 6 -4 10 -9 10 -6 0
-13 -4 -16 -10z"/>
<path d="M1527 5536 c-8 -19 15 -37 32 -26 17 10 7 40 -13 40 -7 0 -16 -6 -19
-14z"/>
<path d="M8865 5540 c4 -6 11 -8 16 -5 14 9 11 15 -7 15 -8 0 -12 -5 -9 -10z"/>
<path d="M7066 5525 c-6 -17 16 -31 33 -21 13 9 2 36 -14 36 -7 0 -16 -7 -19
-15z"/>
<path d="M7404 5489 c-3 -6 -1 -15 7 -19 16 -10 52 7 44 21 -8 13 -42 11 -51
-2z"/>
<path d="M2043 5451 c-14 -11 -23 -30 -23 -46 0 -16 9 -35 23 -46 24 -20 57
-25 57 -9 0 6 9 10 20 10 13 0 17 5 14 14 -3 8 -1 23 5 34 9 16 4 22 -30 40
-23 12 -42 22 -42 22 -1 -1 -12 -9 -24 -19z"/>
<path d="M4224 5459 c-10 -17 13 -36 27 -22 12 12 4 33 -11 33 -5 0 -12 -5
-16 -11z"/>
<path d="M6036 5361 c-7 -11 18 -33 27 -24 4 3 7 12 7 20 0 15 -26 18 -34 4z"/>
<path d="M9672 5333 c2 -10 10 -18 18 -18 8 0 16 8 18 18 2 12 -3 17 -18 17
-15 0 -20 -5 -18 -17z"/>
<path d="M2937 5294 c-14 -14 -7 -35 11 -32 9 2 17 10 17 17 0 16 -18 25 -28
15z"/>
<path d="M4733 5283 c-16 -6 -17 -39 -2 -49 6 -3 18 1 27 10 14 14 14 18 2 30
-8 7 -21 12 -27 9z"/>
<path d="M3740 5220 c0 -5 5 -10 10 -10 6 0 10 5 10 10 0 6 -4 10 -10 10 -5 0
-10 -4 -10 -10z"/>
<path d="M8475 5190 c-3 -5 1 -10 9 -10 9 0 16 5 16 10 0 6 -4 10 -9 10 -6 0
-13 -4 -16 -10z"/>
<path d="M180 5180 c0 -5 5 -10 10 -10 6 0 10 5 10 10 0 6 -4 10 -10 10 -5 0
-10 -4 -10 -10z"/>
<path d="M11584 5099 c-8 -14 11 -33 25 -25 16 10 13 36 -3 36 -8 0 -18 -5
-22 -11z"/>
<path d="M7660 5089 c0 -5 5 -7 10 -4 6 3 10 8 10 11 0 2 -4 4 -10 4 -5 0 -10
-5 -10 -11z"/>
<path d="M4375 5050 c-8 -14 3 -30 21 -30 8 0 14 9 14 20 0 21 -24 28 -35 10z"/>
<path d="M2895 4790 c-4 -7 -3 -16 3 -22 14 -14 45 -2 40 15 -6 16 -34 21 -43
7z"/>
<path d="M1501 4711 c-17 -11 -7 -41 13 -41 22 0 30 20 15 36 -9 8 -19 10 -28
5z"/>
<path d="M347 4674 c-12 -12 -8 -42 6 -47 21 -8 39 8 35 29 -3 19 -29 30 -41
18z"/>
<path d="M11277 4664 c-14 -14 -7 -35 11 -32 9 2 17 10 17 17 0 16 -18 25 -28
15z"/>
<path d="M10537 4654 c-14 -14 -7 -35 11 -32 9 2 17 10 17 17 0 16 -18 25 -28
15z"/>
<path d="M5827 4643 c-4 -3 -7 -12 -7 -20 0 -15 26 -18 34 -4 7 11 -18 33 -27
24z"/>
<path d="M7070 4630 c13 -23 45 -23 45 0 0 9 -11 16 -28 18 -26 3 -28 2 -17
-18z"/>
<path d="M2517 4496 c-8 -19 15 -37 32 -26 17 10 7 40 -13 40 -7 0 -16 -6 -19
-14z"/>
<path d="M3770 4490 c0 -5 5 -10 10 -10 6 0 10 5 10 10 0 6 -4 10 -10 10 -5 0
-10 -4 -10 -10z"/>
<path d="M4700 4475 c0 -10 7 -15 18 -13 21 4 19 22 -2 26 -10 2 -16 -3 -16
-13z"/>
<path d="M2095 4440 c-8 -14 3 -30 21 -30 8 0 14 9 14 20 0 21 -24 28 -35 10z"/>
<path d="M1297 4404 c-14 -15 -6 -34 14 -34 14 0 19 5 17 17 -3 18 -20 27 -31
17z"/>
<path d="M9065 4400 c-8 -14 3 -30 21 -30 8 0 14 9 14 20 0 21 -24 28 -35 10z"/>
<path d="M3352 4389 c2 -6 8 -10 13 -10 5 0 11 4 13 10 2 6 -4 11 -13 11 -9 0
-15 -5 -13 -11z"/>
<path d="M8085 4350 c4 -6 11 -8 16 -5 14 9 11 15 -7 15 -8 0 -12 -5 -9 -10z"/>
<path d="M3380 4306 c0 -21 11 -46 20 -46 5 0 16 7 25 16 12 12 13 19 4 30
-15 18 -49 18 -49 0z"/>
<path d="M11780 4286 c-28 -35 16 -99 51 -73 9 7 19 24 22 38 5 21 2 28 -19
37 -32 15 -39 15 -54 -2z"/>
<path d="M7632 4203 c2 -10 10 -18 18 -18 8 0 16 8 18 18 2 12 -3 17 -18 17
-15 0 -20 -5 -18 -17z"/>
<path d="M9610 4170 c0 -15 5 -20 18 -18 9 2 17 10 17 18 0 8 -8 16 -17 18
-13 2 -18 -3 -18 -18z"/>
<path d="M8502 4163 c2 -10 10 -18 18 -18 22 0 18 29 -3 33 -14 3 -18 -1 -15
-15z"/>
<path d="M2200 4150 c0 -13 7 -20 20 -20 13 0 20 7 20 20 0 13 -7 20 -20 20
-13 0 -20 -7 -20 -20z"/>
<path d="M6701 4133 c-1 -21 -36 -63 -53 -63 -4 0 -27 17 -50 37 -34 29 -37
31 -17 8 55 -62 55 -109 2 -121 -48 -10 -49 -12 -5 -13 35 -1 45 -5 49 -21 3
-11 10 -20 15 -20 5 0 7 -8 3 -19 -4 -15 -1 -18 19 -14 22 5 25 0 34 -38 l10
-44 1 48 c1 53 9 57 60 26 l33 -20 -21 27 c-26 33 -26 46 0 69 14 14 43 21 97
26 l77 6 -76 1 c-79 2 -117 17 -106 44 4 11 1 14 -12 11 -20 -5 -46 28 -54 68
-4 22 -4 22 -6 2z"/>
<path d="M12417 4134 c-14 -15 -6 -34 14 -34 14 0 19 5 17 17 -3 18 -20 27
-31 17z"/>
<path d="M2557 4106 c-8 -20 20 -43 35 -28 14 14 3 42 -16 42 -7 0 -16 -6 -19
-14z"/>
<path d="M10293 3983 c-21 -7 -15 -33 7 -33 11 0 20 6 20 14 0 18 -11 25 -27
19z"/>
<path d="M5474 3899 c-10 -17 13 -36 27 -22 12 12 4 33 -11 33 -5 0 -12 -5
-16 -11z"/>
<path d="M4875 3891 c-8 -15 3 -31 21 -31 9 0 14 7 12 17 -4 20 -24 28 -33 14z"/>
<path d="M1827 3858 c-2 -7 -5 -60 -7 -118 -3 -165 -12 -226 -33 -222 -10 2
-17 -3 -17 -13 0 -29 -25 -15 -98 58 -72 70 -84 63 -18 -11 38 -43 66 -83 66
-94 0 -5 -7 -8 -16 -8 -13 0 -14 -3 -4 -15 24 -29 10 -34 -145 -52 l-70 -8
115 -5 c110 -5 115 -6 118 -27 2 -13 10 -23 19 -23 12 0 9 -10 -12 -47 l-28
-48 30 28 c16 15 39 27 51 27 22 0 22 -1 22 -186 0 -102 4 -183 8 -180 5 3 11
87 15 187 3 100 10 186 15 191 12 12 44 -5 94 -51 46 -43 60 -35 20 10 -15 19
-36 45 -45 58 -16 23 -15 25 11 50 30 28 82 38 212 41 41 1 89 6 105 11 18 5
-33 6 -127 4 -90 -3 -158 -1 -158 4 0 5 -9 11 -20 14 -29 7 -25 20 23 79 64
80 66 90 3 26 -55 -57 -86 -72 -86 -43 0 7 -7 18 -16 23 -14 8 -16 32 -15 181
2 161 0 188 -12 159z"/>
<path d="M3785 3770 c-4 -7 -3 -16 3 -22 14 -14 45 -2 40 15 -6 16 -34 21 -43
7z"/>
<path d="M290 3752 c0 -24 8 -32 26 -25 22 8 17 43 -6 43 -13 0 -20 -7 -20
-18z"/>
<path d="M7645 3650 c-8 -14 3 -30 21 -30 8 0 14 9 14 20 0 21 -24 28 -35 10z"/>
<path d="M8380 3640 c0 -15 5 -20 18 -18 9 2 17 10 17 18 0 8 -8 16 -17 18
-13 2 -18 -3 -18 -18z"/>
<path d="M10369 3614 c-10 -12 -9 -18 3 -31 19 -18 38 -10 38 17 0 24 -25 33
-41 14z"/>
<path d="M12494 3615 c-4 -9 -2 -21 3 -26 14 -14 45 1 41 20 -4 22 -37 26 -44
6z"/>
<path d="M6800 3600 c0 -5 5 -10 10 -10 6 0 10 5 10 10 0 6 -4 10 -10 10 -5 0
-10 -4 -10 -10z"/>
<path d="M3235 3560 c-3 -5 1 -10 9 -10 9 0 16 5 16 10 0 6 -4 10 -9 10 -6 0
-13 -4 -16 -10z"/>
<path d="M9836 3552 c-8 -13 11 -35 23 -28 16 10 14 36 -3 36 -8 0 -17 -4 -20
-8z"/>
<path d="M4528 3538 c-24 -20 -27 -42 -8 -68 21 -27 58 -23 78 11 12 19 11 24
-9 45 -25 27 -38 30 -61 12z"/>
<path d="M4312 3523 c2 -10 10 -18 18 -18 22 0 18 29 -3 33 -14 3 -18 -1 -15
-15z"/>
<path d="M825 3501 c-8 -15 3 -31 21 -31 9 0 14 7 12 17 -4 20 -24 28 -33 14z"/>
<path d="M8816 3461 c-35 -39 28 -105 69 -71 9 7 13 15 11 18 -3 2 -1 13 5 23
8 15 4 21 -20 34 -38 19 -44 19 -65 -4z"/>
<path d="M5060 3455 c0 -8 7 -15 15 -15 8 0 15 7 15 15 0 8 -7 15 -15 15 -8 0
-15 -7 -15 -15z"/>
<path d="M7175 3420 c-8 -14 3 -30 21 -30 8 0 14 9 14 20 0 21 -24 28 -35 10z"/>
<path d="M1430 3370 c0 -5 6 -10 14 -10 8 0 18 5 21 10 3 6 -3 10 -14 10 -12
0 -21 -4 -21 -10z"/>
<path d="M7793 3243 c-16 -6 -17 -39 -2 -49 6 -3 18 1 27 10 14 14 14 18 2 30
-8 7 -21 12 -27 9z"/>
<path d="M11145 3210 c-3 -5 -1 -10 4 -10 6 0 11 5 11 10 0 6 -2 10 -4 10 -3
0 -8 -4 -11 -10z"/>
<path d="M2850 3200 c0 -5 5 -10 10 -10 6 0 10 5 10 10 0 6 -4 10 -10 10 -5 0
-10 -4 -10 -10z"/>
<path d="M3602 3023 c5 -26 38 -29 38 -4 0 15 -6 21 -21 21 -14 0 -19 -5 -17
-17z"/>
<path d="M2452 2958 c2 -13 10 -23 18 -23 8 0 16 10 18 23 3 17 -2 22 -18 22
-16 0 -21 -5 -18 -22z"/>
<path d="M3323 2964 c-8 -21 13 -42 28 -27 13 13 5 43 -11 43 -6 0 -13 -7 -17
-16z"/>
<path d="M7243 2814 c-8 -21 13 -42 28 -27 13 13 5 43 -11 43 -6 0 -13 -7 -17
-16z"/>
<path d="M9790 2770 c0 -5 14 -10 30 -10 17 0 30 5 30 10 0 6 -13 10 -30 10
-16 0 -30 -4 -30 -10z"/>
<path d="M1010 2750 c0 -15 5 -20 18 -18 9 2 17 10 17 18 0 8 -8 16 -17 18
-13 2 -18 -3 -18 -18z"/>
<path d="M6225 2731 c-6 -11 9 -23 19 -14 9 9 7 23 -3 23 -6 0 -12 -4 -16 -9z"/>
<path d="M12336 2685 c-5 -14 17 -45 33 -45 4 0 16 6 26 14 16 12 17 16 6 30
-17 20 -57 21 -65 1z"/>
<path d="M6885 2621 c-8 -15 3 -31 21 -31 9 0 14 7 12 17 -4 20 -24 28 -33 14z"/>
<path d="M7696 2595 c-3 -9 1 -18 10 -22 19 -7 39 11 30 26 -10 16 -33 13 -40
-4z"/>
<path d="M11670 2500 c0 -13 7 -20 20 -20 13 0 20 7 20 20 0 13 -7 20 -20 20
-13 0 -20 -7 -20 -20z"/>
<path d="M1430 2480 c0 -13 7 -20 20 -20 13 0 20 7 20 20 0 13 -7 20 -20 20
-13 0 -20 -7 -20 -20z"/>
<path d="M2110 2471 c0 -27 19 -36 37 -18 18 18 9 37 -18 37 -12 0 -19 -7 -19
-19z"/>
<path d="M9400 2416 c0 -11 10 -16 31 -16 38 0 35 24 -4 28 -19 2 -27 -1 -27
-12z"/>
<path d="M6020 2410 c0 -5 5 -10 10 -10 6 0 10 5 10 10 0 6 -4 10 -10 10 -5 0
-10 -4 -10 -10z"/>
<path d="M10756 2381 c-4 -5 -2 -12 3 -15 5 -4 12 -2 15 3 4 5 2 12 -3 15 -5
4 -12 2 -15 -3z"/>
<path d="M2460 2370 c0 -5 5 -10 10 -10 6 0 10 5 10 10 0 6 -4 10 -10 10 -5 0
-10 -4 -10 -10z"/>
<path d="M5830 2370 c0 -5 7 -10 15 -10 8 0 15 5 15 10 0 6 -7 10 -15 10 -8 0
-15 -4 -15 -10z"/>
<path d="M5642 2331 c-19 -11 -11 -45 11 -49 9 -2 20 4 23 13 9 21 -16 47 -34
36z"/>
<path d="M3530 2315 c0 -8 7 -15 15 -15 8 0 15 7 15 15 0 8 -7 15 -15 15 -8 0
-15 -7 -15 -15z"/>
<path d="M12544 2306 c-8 -21 3 -36 27 -36 15 0 20 6 17 22 -4 27 -35 37 -44
14z"/>
<path d="M10226 2220 c2 -47 7 -124 11 -172 5 -78 4 -88 -11 -88 -9 0 -16 -7
-16 -15 0 -8 -6 -15 -14 -15 -14 0 -131 83 -141 101 -4 5 -12 9 -18 9 -7 0 22
-32 63 -72 42 -40 69 -73 62 -76 -7 -2 -10 -13 -6 -27 6 -26 -13 -35 -126 -56
-36 -6 -72 -16 -80 -21 -10 -6 -6 -7 15 -4 88 15 197 26 205 21 6 -3 10 -13
10 -21 0 -8 7 -14 15 -14 21 0 19 -15 -11 -68 l-26 -47 34 38 c29 33 78 51 78
30 2 -45 39 -345 44 -350 6 -6 11 111 6 132 -11 42 -29 214 -25 233 6 23 20
29 30 12 3 -5 13 -10 21 -10 9 0 30 -11 47 -24 59 -43 62 -39 10 15 -52 54
-67 89 -38 89 8 0 15 7 15 15 0 17 33 26 195 55 66 12 125 26 130 31 12 12
-30 7 -184 -22 -112 -21 -171 -18 -171 10 0 9 16 43 35 76 19 33 25 47 12 31
-12 -16 -34 -43 -49 -60 l-26 -31 -28 28 c-29 30 -42 80 -44 177 0 30 -7 82
-15 115 l-15 60 6 -85z"/>
<path d="M7220 2114 c-11 -12 -11 -18 2 -30 14 -14 17 -14 32 1 13 13 14 20 5
31 -15 18 -24 18 -39 -2z"/>
<path d="M7602 2013 c2 -10 10 -18 18 -18 22 0 18 29 -3 33 -14 3 -18 -1 -15
-15z"/>
<path d="M12025 1959 c-11 -16 4 -59 20 -59 22 0 47 41 33 57 -13 16 -44 17
-53 2z"/>
<path d="M4717 1954 c-14 -15 -6 -34 14 -34 14 0 19 5 17 17 -3 18 -20 27 -31
17z"/>
<path d="M4160 1895 c0 -8 7 -15 15 -15 8 0 15 7 15 15 0 8 -7 15 -15 15 -8 0
-15 -7 -15 -15z"/>
<path d="M3430 1885 c-15 -18 -5 -35 21 -35 12 0 19 7 19 19 0 24 -25 34 -40
16z"/>
<path d="M1255 1880 c-4 -7 -3 -16 3 -22 14 -14 45 -2 40 15 -6 16 -34 21 -43
7z"/>
<path d="M12200 1825 c-18 -21 -5 -47 22 -43 26 3 37 36 16 49 -18 12 -24 11
-38 -6z"/>
<path d="M8651 1796 c-15 -18 -3 -46 20 -46 25 0 35 26 19 45 -15 19 -24 19
-39 1z"/>
<path d="M452 1753 c5 -26 38 -29 38 -4 0 15 -6 21 -21 21 -14 0 -19 -5 -17
-17z"/>
<path d="M5061 1736 c-16 -19 -6 -36 20 -36 15 0 20 6 17 22 -4 27 -21 33 -37
14z"/>
<path d="M11290 1730 c0 -13 7 -20 20 -20 13 0 20 7 20 20 0 13 -7 20 -20 20
-13 0 -20 -7 -20 -20z"/>
<path d="M3164 1689 c-10 -17 23 -46 37 -32 7 7 9 19 6 27 -7 18 -33 21 -43 5z"/>
<path d="M11794 1665 c-4 -9 -2 -21 4 -27 16 -16 47 -5 47 17 0 26 -42 34 -51
10z"/>
<path d="M9010 1590 c-13 -9 -13 -11 0 -20 21 -14 55 -8 55 10 0 18 -34 24
-55 10z"/>
<path d="M4495 1571 c-8 -15 3 -31 21 -31 9 0 14 7 12 17 -4 20 -24 28 -33 14z"/>
<path d="M2693 1544 c-8 -21 13 -42 28 -27 13 13 5 43 -11 43 -6 0 -13 -7 -17
-16z"/>
<path d="M3710 1531 c0 -27 19 -36 37 -18 18 18 9 37 -18 37 -12 0 -19 -7 -19
-19z"/>
<path d="M5445 1540 c-7 -11 39 -25 55 -15 5 3 8 11 5 16 -8 12 -52 12 -60 -1z"/>
<path d="M8661 1531 c-12 -8 -12 -12 -2 -25 25 -30 68 -16 55 18 -7 18 -31 21
-53 7z"/>
<path d="M1660 1495 c-15 -18 -5 -35 21 -35 12 0 19 7 19 19 0 24 -25 34 -40
16z"/>
<path d="M3247 1464 c-16 -16 -6 -35 16 -32 12 2 22 10 22 18 0 16 -26 25 -38
14z"/>
<path d="M12464 1345 c-9 -21 3 -45 21 -45 21 0 30 27 15 45 -16 19 -29 19
-36 0z"/>
<path d="M1133 1243 c-7 -3 -13 -13 -13 -23 0 -19 17 -30 38 -23 6 3 12 13 12
23 0 19 -17 30 -37 23z"/>
<path d="M4494 1229 c-8 -14 11 -33 25 -25 16 10 13 36 -3 36 -8 0 -18 -5 -22
-11z"/>
<path d="M450 1210 c0 -13 7 -20 20 -20 13 0 20 7 20 20 0 13 -7 20 -20 20
-13 0 -20 -7 -20 -20z"/>
<path d="M7840 1135 c-10 -11 -10 -19 -2 -27 15 -15 44 -2 40 19 -4 23 -22 27
-38 8z"/>
<path d="M11324 1135 c-4 -9 0 -23 9 -32 21 -21 49 -9 45 19 -4 28 -45 38 -54
13z"/>
<path d="M11910 1104 c-11 -12 -10 -18 3 -32 16 -15 18 -15 34 0 13 14 14 20
3 32 -7 9 -16 16 -20 16 -4 0 -13 -7 -20 -16z"/>
<path d="M8520 1080 c0 -13 7 -20 20 -20 13 0 20 7 20 20 0 13 -7 20 -20 20
-13 0 -20 -7 -20 -20z"/>
<path d="M7285 1060 c-4 -6 -1 -17 5 -26 15 -18 42 0 33 22 -6 16 -29 19 -38
4z"/>
<path d="M11842 1007 c-9 -10 -9 -18 1 -31 17 -23 49 -11 45 18 -4 25 -30 32
-46 13z"/>
<path d="M4734 949 c-10 -17 13 -36 27 -22 12 12 4 33 -11 33 -5 0 -12 -5 -16
-11z"/>
<path d="M12450 930 c0 -5 5 -10 10 -10 6 0 10 5 10 10 0 6 -4 10 -10 10 -5 0
-10 -4 -10 -10z"/>
<path d="M961 806 c-9 -10 -9 -16 -1 -21 17 -10 37 12 24 25 -8 8 -15 6 -23
-4z"/>
<path d="M7830 770 c0 -5 5 -10 10 -10 6 0 10 5 10 10 0 6 -4 10 -10 10 -5 0
-10 -4 -10 -10z"/>
<path d="M1565 761 c-3 -5 -1 -12 5 -16 5 -3 10 1 10 9 0 18 -6 21 -15 7z"/>
<path d="M5373 742 c-23 -14 -25 -56 -4 -78 24 -26 71 -22 71 7 0 10 5 21 11
24 7 5 2 16 -12 31 -23 24 -45 30 -66 16z"/>
<path d="M12566 741 c-4 -5 -2 -12 3 -15 5 -4 12 -2 15 3 4 5 2 12 -3 15 -5 4
-12 2 -15 -3z"/>
<path d="M1553 717 c-52 -26 -25 -108 34 -104 19 1 33 7 33 15 0 7 7 15 15 18
22 9 18 21 -17 54 -36 32 -34 32 -65 17z"/>
<path d="M4676 712 c-9 -14 21 -35 40 -28 8 3 14 12 12 19 -6 15 -44 22 -52 9z"/>
<path d="M8792 708 c-16 -16 -15 -38 2 -38 18 0 39 27 31 40 -8 13 -18 13 -33
-2z"/>
<path d="M6217 684 c-14 -14 -7 -35 11 -32 9 2 17 10 17 17 0 16 -18 25 -28
15z"/>
<path d="M4021 666 c-12 -14 -5 -26 16 -26 15 0 18 26 4 34 -5 3 -14 0 -20 -8z"/>
<path d="M7910 625 c-6 -8 -9 -23 -5 -34 12 -39 78 -39 90 0 9 27 -11 49 -45
49 -15 0 -33 -7 -40 -15z"/>
<path d="M12055 568 c-12 -36 -8 -64 11 -85 27 -30 38 -29 68 4 l26 27 -32 33
c-33 34 -65 43 -73 21z"/>
<path d="M3557 564 c-14 -14 -7 -35 11 -32 9 2 17 10 17 17 0 16 -18 25 -28
15z"/>
<path d="M6175 459 c-8 -25 -3 -31 19 -23 20 8 21 44 2 44 -8 0 -18 -9 -21
-21z"/>
<path d="M485 460 c-4 -7 -3 -16 3 -22 14 -14 45 -2 40 15 -6 16 -34 21 -43 7z"/>
<path d="M7440 410 c0 -5 5 -10 10 -10 6 0 10 5 10 10 0 6 -4 10 -10 10 -5 0
-10 -4 -10 -10z"/>
<path d="M12175 380 c-3 -5 -1 -10 4 -10 6 0 11 5 11 10 0 6 -2 10 -4 10 -3 0
-8 -4 -11 -10z"/>
<path d="M2668 368 c-12 -33 19 -51 41 -25 8 10 7 17 -1 25 -16 16 -35 15 -40
0z"/>
<path d="M10276 364 c-22 -21 -3 -56 27 -52 37 5 33 67 -5 68 -4 0 -14 -7 -22
-16z"/>
<path d="M7382 338 c2 -15 10 -23 23 -23 30 0 27 39 -3 43 -20 3 -23 0 -20
-20z"/>
<path d="M3780 330 c0 -11 7 -20 15 -20 8 0 15 9 15 20 0 11 -7 20 -15 20 -8
0 -15 -9 -15 -20z"/>
<path d="M11522 328 c-17 -17 -15 -35 5 -42 21 -8 36 6 31 30 -4 22 -20 28
-36 12z"/>
<path d="M846 315 c-3 -9 1 -18 10 -22 19 -7 28 2 21 22 -8 19 -23 19 -31 0z"/>
<path d="M10225 290 c-7 -12 2 -30 16 -30 12 0 12 27 0 35 -5 3 -12 1 -16 -5z"/>
<path d="M10544 206 c-10 -26 4 -48 28 -44 17 2 23 10 23 28 0 18 -6 26 -23
28 -13 2 -25 -3 -28 -12z"/>
<path d="M1700 190 c0 -13 7 -20 20 -20 13 0 20 7 20 20 0 13 -7 20 -20 20
-13 0 -20 -7 -20 -20z"/>
<path d="M5967 173 c-4 -3 -7 -12 -7 -20 0 -15 26 -18 34 -4 7 11 -18 33 -27
24z"/>
<path d="M6661 160 c-16 -9 -6 -30 15 -30 15 0 20 25 6 34 -4 2 -14 1 -21 -4z"/>
<path d="M11597 154 c-14 -15 -6 -34 14 -34 14 0 19 5 17 17 -3 18 -20 27 -31
17z"/>
<path d="M3082 138 c5 -15 28 -18 29 -3 0 6 -7 12 -17 13 -10 3 -15 -1 -12
-10z"/>
<path d="M4520 135 c0 -8 7 -15 15 -15 8 0 15 7 15 15 0 8 -7 15 -15 15 -8 0
-15 -7 -15 -15z"/>
<path d="M9708 128 c-8 -21 2 -38 24 -38 14 0 19 6 16 22 -3 25 -33 36 -40 16z"/>
<path d="M3670 116 c0 -8 4 -17 9 -20 11 -7 33 18 24 27 -12 12 -33 7 -33 -7z"/>
</g>
</svg>
